<svg width="1024" height="1024" viewBox="0 0 1024 1024" fill="none" xmlns="http://www.w3.org/2000/svg">
<circle cx="515" cy="513" r="278.5" fill="#18253B" stroke="black"/>
<circle cx="167" cy="711" r="65" fill="#0096C7"/>
<circle cx="511" cy="113" r="65" fill="#0096C7"/>
<path d="M230.507 761.28C299.391 839.008 399.974 888 512 888C623.576 888 723.8 839.399 792.66 762.214C802.553 775.128 816.247 784.977 832.07 790.09C754.335 879.484 639.768 936 512 936C383.483 936 268.323 878.821 190.566 788.516C206.524 783.671 220.395 774.035 230.507 761.28ZM590.028 95.165C786.926 131.792 936 304.487 936 512C936 561.581 927.489 609.173 911.85 653.397C900.009 642.496 884.913 635.077 868.185 632.767C881.032 594.862 888 554.245 888 512C888 329.719 758.291 177.735 586.137 143.309C589.917 133.946 592 123.717 592 113C592 106.872 591.318 100.904 590.028 95.165ZM431.882 95.5586C430.649 101.176 430 107.012 430 113C430 123.859 432.137 134.219 436.013 143.682C264.781 178.823 136 330.373 136 512C136 553.537 142.736 593.5 155.174 630.858C138.451 633.305 123.388 640.86 111.62 651.89C96.3188 608.092 88 561.018 88 512C88 305.222 236.02 133.015 431.882 95.5586Z" fill="#18253B"/>
<circle cx="857" cy="713" r="65" fill="#0096C7"/>
</svg>
